HIERARCHY
ROOT Hips
{
  OFFSET 0.0 0.0 0.0
  CHANNELS 6 Xposition Yposition Zposition Zrotation Yrotation Xrotation
  JOINT LHipJoint
  {
    OFFSET 0.0 0.0 0.0
    CHANNELS 3 Zrotation Yrotation Xrotation
    JOINT LeftUpLeg
    {
      OFFSET 1.363059998 -1.794630051 0.839290023
      CHANNELS 3 Zrotation Yrotation Xrotation
      JOINT LeftLeg
      {
        OFFSET 2.448110104 -6.726130009 0.0
        CHANNELS 3 Zrotation Yrotation Xrotation
        JOINT LeftFoot
        {
          OFFSET 2.562200069 -7.039589882 0.0
          CHANNELS 3 Zrotation Yrotation Xrotation
          JOINT LeftToeBase
          {
            OFFSET 0.157639995 -0.433109999 2.322550058
            CHANNELS 3 Zrotation Yrotation Xrotation
            End Site
            {
              OFFSET 0.0 -0.0 1.189659953
            }
          }
        }
      }
    }
  }
  JOINT RHipJoint
  {
    OFFSET 0.0 0.0 0.0
    CHANNELS 3 Zrotation Yrotation Xrotation
    JOINT RightUpLeg
    {
      OFFSET -1.305520058 -1.794630051 0.839290023
      CHANNELS 3 Zrotation Yrotation Xrotation
      JOINT RightLeg
      {
        OFFSET -2.54253006 -6.985549927 0.0
        CHANNELS 3 Zrotation Yrotation Xrotation
        JOINT RightFoot
        {
          OFFSET -2.568259954 -7.056230068 0.0
          CHANNELS 3 Zrotation Yrotation Xrotation
          JOINT RightToeBase
          {
            OFFSET -0.164729998 -0.452589989 2.363149881
            CHANNELS 3 Zrotation Yrotation Xrotation
            End Site
            {
              OFFSET -0.0 -0.0 1.21081996
            }
          }
        }
      }
    }
  }
  JOINT LowerBack
  {
    OFFSET 0.0 0.0 0.0
    CHANNELS 3 Zrotation Yrotation Xrotation
    JOINT Spine
    {
      OFFSET 0.028270001 2.035589933 -0.193379998
      CHANNELS 3 Zrotation Yrotation Xrotation
      JOINT Spine1
      {
        OFFSET 0.05672 2.04885006 -0.042750001
        CHANNELS 3 Zrotation Yrotation Xrotation
        JOINT Neck
        {
          OFFSET 0.0 0.0 0.0
          CHANNELS 3 Zrotation Yrotation Xrotation
          JOINT Neck1
          {
            OFFSET -0.054170001 1.74624002 0.172020003
            CHANNELS 3 Zrotation Yrotation Xrotation
            JOINT Head
            {
              OFFSET 0.10407 1.761360049 -0.123970002
              CHANNELS 3 Zrotation Yrotation Xrotation
              End Site
              {
                OFFSET 0.0372 1.770439982 -0.062410001
              }
            }
          }
        }
        JOINT LeftShoulder
        {
          OFFSET 0.0 0.0 0.0
          CHANNELS 3 Zrotation Yrotation Xrotation
          JOINT LeftArm
          {
            OFFSET 3.362410069 1.200889945 -0.311210006
            CHANNELS 3 Zrotation Yrotation Xrotation
            JOINT LeftForeArm
            {
              OFFSET 4.982999802 -0.0 -0.0
              CHANNELS 3 Zrotation Yrotation Xrotation
              JOINT LeftHand
              {
                OFFSET 3.483560085 -0.0 -0.0
                CHANNELS 3 Zrotation Yrotation Xrotation
                JOINT LeftFingerBase
                {
                  OFFSET 0.0 0.0 0.0
                  CHANNELS 3 Zrotation Yrotation Xrotation
                  JOINT LeftHandIndex1
                  {
                    OFFSET 0.715260029 -0.0 -0.0
                    CHANNELS 3 Zrotation Yrotation Xrotation
                    End Site
                    {
                      OFFSET 0.576659977 -0.0 -0.0
                    }
                  }
                }
                JOINT LThumb
                {
                  OFFSET 0.0 0.0 0.0
                  CHANNELS 3 Zrotation Yrotation Xrotation
                  End Site
                  {
                    OFFSET 0.585470021 -0.0 0.585470021
                  }
                }
              }
            }
          }
        }
        JOINT RightShoulder
        {
          OFFSET 0.0 0.0 0.0
          CHANNELS 3 Zrotation Yrotation Xrotation
          JOINT RightArm
          {
            OFFSET -3.136600018 1.374050021 -0.404650003
            CHANNELS 3 Zrotation Yrotation Xrotation
            JOINT RightForeArm
            {
              OFFSET -5.241899967 -0.0 -0.0
              CHANNELS 3 Zrotation Yrotation Xrotation
              JOINT RightHand
              {
                OFFSET -3.444169998 -0.0 -0.0
                CHANNELS 3 Zrotation Yrotation Xrotation
                JOINT RightFingerBase
                {
                  OFFSET 0.0 0.0 0.0
                  CHANNELS 3 Zrotation Yrotation Xrotation
                  JOINT RightHandIndex1
                  {
                    OFFSET -0.622529984 -0.0 -0.0
                    CHANNELS 3 Zrotation Yrotation Xrotation
                    End Site
                    {
                      OFFSET -0.501900017 -0.0 -0.0
                    }
                  }
                }
                JOINT RThumb
                {
                  OFFSET 0.0 0.0 0.0
                  CHANNELS 3 Zrotation Yrotation Xrotation
                  End Site
                  {
                    OFFSET -0.509559989 -0.0 0.509559989
                  }
                }
              }
            }
          }
        }
      }
    }
  }
}
MOTION
Frames: 7
Frame Time: 0.0083333
0.0 26.709199905 0.0 -8.557600975 50.077812195 -4.082012653 0.0 -0.0 0.0 4.69920063 -8.306899071 -54.081008911 27.670888901 18.526304245 112.97190094 1.585200548 -17.147499084 -23.945402145 0.483999908 4.461000443 12.377400398 0.0 -0.0 0.0 34.781097412 1.29719913 -17.631799698 -1.483399391 -7.69509697 21.791694641 -0.446700066 4.140600681 -11.889699936 -1.49549973 -7.725099564 21.88209343 1.399700165 -2.017400026 23.008897781 -0.554099977 -2.176400185 4.433499336 -0.778100073 -1.009600163 -8.030302048 -2.124899864 -3.865300655 -13.28469944 12.305602074 -4.590399265 -5.979401112 4.240000248 -1.988400459 0.784100056 0.0 -0.0 0.0 -48.646297455 -28.638496399 5.3635993 27.057201385 -38.233699799 -9.534502029 0.0 -0.0 16.565099716 17.108406067 2.29700017 0.706800282 -7.125 0.0 0.0 -7.641699314 32.319900513 2.39060092 0.0 -0.0 0.0 10.996795654 21.477298737 -59.812000275 -91.492996216 59.991600037 -61.292888641 0.0 0.0 -52.480400085 -17.478399277 -26.756698608 8.068598747 7.125 -0.0 0.0 13.965702057 -57.290904999 -4.260400772 
0.019100189 26.729400635 0.005500793 -9.345599174 49.177001953 -5.097988129 0.0 -0.0 0.0 6.829799652 -7.954498291 -53.812099457 27.77107048 18.485704422 113.287475586 0.768900216 -22.482894897 -21.020996094 1.188500047 6.91809845 19.472900391 0.0 -0.0 0.0 35.446804047 2.115102291 -16.436903 -1.439900041 -7.586401463 21.464698792 -0.438000053 3.538499832 -11.791100502 -1.718699932 -8.253700256 23.487297058 1.420700073 -1.776499987 23.119401932 -0.27790004 -1.8270998 4.608498573 -0.591600001 -0.837599814 -7.87650013 0.251399994 -4.591700554 -13.448301315 10.097899437 -5.863298893 -6.408699512 2.93900013 -2.718400002 0.577100039 0.0 -0.0 0.0 -48.644298553 -28.186605453 5.586099148 27.113698959 -38.287399292 -9.569499016 0.0 -0.0 16.021299362 16.93639946 2.748800516 0.836700201 -7.125 0.0 0.0 -7.825301647 32.783306122 2.360799551 0.0 -0.0 0.0 10.098201752 21.257501602 -59.379692078 -91.538108826 59.991088867 -61.332004547 0.0 0.0 -52.792598724 -15.113301277 -29.402997971 7.552800179 7.125 -0.0 0.0 18.123996735 -59.327091217 -6.473897934 
0.051099777 26.770900726 -0.009399414 -8.299502373 48.625106812 -4.37702322 0.0 -0.0 0.0 5.845599174 -8.131501198 -54.436203003 27.661584854 18.530004501 112.942695618 1.463600397 -19.197998047 -23.852600098 0.150500044 2.499900341 6.889400005 0.0 -0.0 0.0 34.739994049 2.186798811 -15.79039669 -1.347800016 -7.349799156 20.755998611 -0.405699998 3.519200802 -11.340397835 -1.938000083 -8.735700607 24.972002029 0.790500224 -1.560600162 23.130502701 -0.498800069 -1.708499789 4.870399952 -0.510599971 -0.764900088 -7.579898834 0.638199866 -4.653298855 -13.694598198 10.527001381 -5.952499866 -6.815000057 3.010900259 -2.767100334 0.492700011 0.0 -0.0 0.0 -48.234405518 -28.396598816 5.269701958 26.909603119 -38.092803955 -9.443304062 0.0 -0.0 16.030799866 16.405603409 2.39890027 0.706000149 -7.125 0.0 0.0 -8.215201378 32.40650177 2.555899858 0.0 -0.0 0.0 9.171702385 21.128595352 -59.490291595 -91.121322632 59.995311737 -60.971118927 0.0 0.0 -52.853603363 -13.647995949 -27.588294983 6.415997505 7.125 -0.0 0.0 18.435195923 -57.281799316 -5.676000595 
0.085700989 26.801000595 -0.078199387 -6.609699249 47.766902924 -2.717010498 0.0 -0.0 0.0 4.66590023 -8.707896233 -55.548988342 27.627386093 18.543689728 112.834983826 1.554299951 -18.338697433 -24.113903046 0.117199995 2.206699848 6.077299595 0.0 -0.0 0.0 33.468193054 2.452898264 -15.758500099 -1.259099841 -7.113300323 20.051395416 -0.350299954 3.740499258 -10.522999763 -2.118799925 -9.109297752 26.138002396 -0.115400009 -1.274999857 22.872701645 -0.681699991 -1.57739985 4.756999493 -0.233000055 -0.689500093 -7.548900127 0.603399932 -3.459399462 -12.157399178 9.809101105 -4.261900425 -7.380699158 2.885499954 -1.997000098 -0.057099994 0.0 -0.0 0.0 -48.513191223 -28.214601517 4.73969841 26.637302399 -37.831104279 -9.275800705 0.0 -0.0 16.773000717 15.591303825 1.288299918 0.359499961 -7.125 0.0 0.0 -8.749500275 31.244901657 2.972700119 0.0 -0.0 0.0 7.850599766 21.116296768 -59.279911041 -91.112922668 59.995315552 -60.963817596 0.0 0.0 -52.88010788 -12.614300728 -33.756103516 7.088400364 7.125 -0.0 0.0 24.430696487 -62.740184784 -10.865797997 
0.152500153 26.864299774 -0.098199844 -5.890398026 47.611190796 -2.50699687 0.0 -0.0 0.0 4.177299976 -10.218400955 -54.875198364 27.482908249 18.600795746 112.381111145 1.334100008 -19.874303818 -23.317697525 0.349799991 3.800201178 10.51529789 0.0 -0.0 0.0 32.823608398 1.238900185 -15.283901215 -1.1868999 -6.913599491 19.459697723 -0.32039988 4.45459938 -10.090197563 -1.946999669 -8.754797935 25.031402588 -0.035399962 -1.286499858 22.724395752 -0.830599844 -1.589799762 4.711500168 -0.439199984 -0.699499965 -7.528399467 -0.064399987 -2.03949976 -9.193798065 9.932900429 -2.131799698 -8.200100899 3.16899991 -1.024900198 -0.911200047 0.0 -0.0 0.0 -49.142501831 -28.309898376 4.209902287 25.994197845 -37.202991486 -8.884199142 0.0 -0.0 18.02340126 15.016401291 0.417400062 0.112000026 -7.125 0.0 0.0 -9.116001129 30.343200684 3.299399614 0.0 -0.0 0.0 7.045900345 20.633415222 -58.270515442 -89.521774292 59.999107361 -59.58588028 0.0 0.0 -53.678398132 -9.93639946 -30.671504974 5.106599808 7.125 -0.0 0.0 24.475902557 -59.322692871 -8.891005516 
0.200000763 26.880599976 -0.136799812 -6.506699562 47.038394928 -2.864023924 0.0 -0.0 0.0 5.172101021 -10.661099434 -55.453300476 27.465816498 18.607385635 112.327804565 1.120599985 -21.327301025 -22.621603012 0.432299972 4.219299793 11.694498062 0.0 -0.0 0.0 33.232589722 1.123199224 -15.052301407 -1.120399714 -6.723899364 18.899896622 -0.289799929 4.605000019 -9.624599457 -1.725700021 -8.269598961 23.536102295 0.713300049 -1.100700021 22.599998474 -1.52180016 -1.314100146 2.921900272 -1.695700049 -0.631900072 -9.473098755 3.825900316 -2.069400072 -1.657400131 8.430998802 -1.907299876 -10.024399757 2.120599747 -1.280199766 -2.889399529 0.0 -0.0 0.0 -49.113498688 -25.969594955 6.078701496 25.288509369 -36.497398376 -8.460904121 0.0 -0.0 19.023399353 14.433897018 -0.062300004 -0.016000003 -7.125 0.0 0.0 -9.524497986 29.846298218 3.565401316 0.0 -0.0 0.0 9.448101997 18.960794449 -53.731384277 -89.483398438 59.998977661 -59.552597046 0.0 0.0 -54.915901184 -9.652296066 -31.14159584 5.0265975 7.125 -0.0 0.0 25.156703949 -59.679801941 -9.375101089 
0.230199814 26.875400543 -0.153399467 -6.676301956 46.371509552 -2.991996765 0.0 -0.0 0.0 5.811297894 -10.41659832 -56.028701782 27.437782288 18.618301392 112.239891052 1.080000281 -22.479198456 -22.900100708 0.361400038 3.861999512 10.688797951 0.0 -0.0 0.0 33.473899841 1.678699374 -14.244998932 -1.034499764 -6.469099045 18.151798248 -0.279500127 3.800599813 -9.402701378 -1.562600017 -7.888400555 22.375499725 0.491100162 -0.671900153 22.770801544 -1.003799915 -0.752300024 3.021999598 -1.166700006 -0.346899986 -9.420801163 3.394000053 -2.34760046 -2.240600348 7.959299564 -2.374000072 -9.979599953 2.032799482 -1.471899867 -2.750099659 0.0 -0.0 0.0 -50.076408386 -26.586103439 6.360198498 24.974502563 -36.178001404 -8.274906158 0.0 -0.0 18.490598679 14.197500229 0.381399959 0.096499994 -7.125 0.0 0.0 -9.753700256 30.29479599 3.547497272 0.0 -0.0 0.0 7.874399662 18.134700775 -53.558403015 -89.186836243 59.997516632 -59.295837402 0.0 0.0 -55.429698944 -11.825099945 -33.049098969 6.513899803 7.125 -0.0 0.0 24.591295242 -61.9077034 -10.458498001 
